<svg width="63" height="63" viewBox="0 0 63 63" fill="none" xmlns="http://www.w3.org/2000/svg">
<g clip-path="url(#clip0_440_4)">
<path d="M0 31.5C0 14.1309 14.1309 0 31.5 0C38.5149 0 45.1545 2.2569 50.7012 6.5268L43.3812 16.0356C39.9516 13.3956 35.8431 12 31.5 12C20.7477 12 12 20.7477 12 31.5C12 42.2523 20.7477 51 31.5 51C40.1601 51 47.5194 45.3261 50.0556 37.5H31.5V25.5H63V31.5C63 48.8691 48.8691 63 31.5 63C14.1309 63 0 48.8691 0 31.5Z" fill="#FF5E2A"/>
</g>
<defs>
<clipPath id="clip0_440_4">
<rect width="63" height="63" fill="white"/>
</clipPath>
</defs>
</svg>
