<svg width="101" height="24" viewBox="0 0 101 24" fill="none" xmlns="http://www.w3.org/2000/svg">
<g clip-path="url(#clip0_1_2)">
<path d="M81.3313 22.9441V0.352051H84.8513L86.3553 4.86405V22.9441H81.3313ZM96.9153 22.9441L83.6033 5.88805L84.8513 0.352051L98.1633 17.4081L96.9153 22.9441ZM96.9153 22.9441L95.5713 18.4321V0.352051H100.595V22.9441H96.9153Z" fill="#FE5E29"/>
<path d="M64.7505 23.2961C62.8945 23.2961 61.2519 22.9014 59.8225 22.1121C58.4145 21.3227 57.3052 20.2347 56.4945 18.8481C55.7052 17.4401 55.3105 15.8401 55.3105 14.0481V0.352051H60.3665V14.3361C60.3665 15.232 60.5585 16.0107 60.9425 16.6721C61.3265 17.3334 61.8492 17.8454 62.5105 18.2081C63.1932 18.5494 63.9399 18.7201 64.7505 18.7201C65.6039 18.7201 66.3505 18.5494 66.9905 18.2081C67.6305 17.8454 68.1319 17.3441 68.4945 16.7041C68.8785 16.0427 69.0705 15.2641 69.0705 14.3681V0.352051H74.1265V14.0801C74.1265 15.8721 73.7319 17.4614 72.9425 18.8481C72.1532 20.2347 71.0545 21.3227 69.6465 22.1121C68.2385 22.9014 66.6065 23.2961 64.7505 23.2961Z" fill="#FE5E29"/>
<path d="M40.2153 23.296C38.3593 23.296 36.7593 22.9973 35.4153 22.4C34.0927 21.7813 32.8767 20.8533 31.7673 19.616L35.0313 16.384C35.7567 17.216 36.5567 17.8667 37.4313 18.336C38.3273 18.784 39.362 19.008 40.5353 19.008C41.602 19.008 42.4233 18.816 42.9993 18.432C43.5967 18.048 43.8953 17.5147 43.8953 16.832C43.8953 16.2133 43.7033 15.712 43.3193 15.328C42.9353 14.944 42.4233 14.6133 41.7833 14.336C41.1647 14.0587 40.4713 13.792 39.7033 13.536C38.9567 13.28 38.21 12.992 37.4633 12.672C36.7167 12.3307 36.0233 11.9147 35.3833 11.424C34.7647 10.912 34.2633 10.2827 33.8793 9.536C33.4953 8.768 33.3033 7.808 33.3033 6.656C33.3033 5.26933 33.634 4.07467 34.2953 3.072C34.978 2.06933 35.9167 1.312 37.1113 0.799999C38.306 0.266666 39.682 0 41.2393 0C42.818 0 44.258 0.277333 45.5593 0.831999C46.882 1.38667 47.97 2.144 48.8233 3.104L45.5593 6.336C44.8767 5.632 44.1833 5.10933 43.4793 4.768C42.7967 4.42667 42.018 4.256 41.1433 4.256C40.2687 4.256 39.5753 4.42667 39.0633 4.768C38.5513 5.088 38.2953 5.55733 38.2953 6.176C38.2953 6.752 38.4873 7.22133 38.8713 7.584C39.2553 7.92533 39.7567 8.224 40.3753 8.48C41.0153 8.736 41.7087 8.992 42.4553 9.248C43.2233 9.504 43.9807 9.80267 44.7273 10.144C45.474 10.4853 46.1567 10.9227 46.7753 11.456C47.4153 11.968 47.9273 12.6293 48.3113 13.44C48.6953 14.2293 48.8873 15.2107 48.8873 16.384C48.8873 18.5387 48.1193 20.2347 46.5833 21.472C45.0473 22.688 42.9247 23.296 40.2153 23.296Z" fill="#FE5E29"/>
<path d="M18.9216 23.296C17.0656 23.296 15.4656 22.9973 14.1216 22.4C12.799 21.7813 11.583 20.8533 10.4736 19.616L13.7376 16.384C14.463 17.216 15.263 17.8667 16.1376 18.336C17.0336 18.784 18.0683 19.008 19.2416 19.008C20.3083 19.008 21.1296 18.816 21.7056 18.432C22.303 18.048 22.6016 17.5147 22.6016 16.832C22.6016 16.2133 22.4096 15.712 22.0256 15.328C21.6416 14.944 21.1296 14.6133 20.4896 14.336C19.871 14.0587 19.1776 13.792 18.4096 13.536C17.663 13.28 16.9163 12.992 16.1696 12.672C15.423 12.3307 14.7296 11.9147 14.0896 11.424C13.471 10.912 12.9696 10.2827 12.5856 9.536C12.2016 8.768 12.0096 7.808 12.0096 6.656C12.0096 5.26933 12.3403 4.07467 13.0016 3.072C13.6843 2.06933 14.623 1.312 15.8176 0.799999C17.0123 0.266666 18.3883 0 19.9456 0C21.5243 0 22.9643 0.277333 24.2656 0.831999C25.5883 1.38667 26.6763 2.144 27.5296 3.104L24.2656 6.336C23.583 5.632 22.8896 5.10933 22.1856 4.768C21.503 4.42667 20.7243 4.256 19.8496 4.256C18.975 4.256 18.2816 4.42667 17.7696 4.768C17.2576 5.088 17.0016 5.55733 17.0016 6.176C17.0016 6.752 17.1936 7.22133 17.5776 7.584C17.9616 7.92533 18.463 8.224 19.0816 8.48C19.7216 8.736 20.415 8.992 21.1616 9.248C21.9296 9.504 22.687 9.80267 23.4336 10.144C24.1803 10.4853 24.863 10.9227 25.4816 11.456C26.1216 11.968 26.6336 12.6293 27.0176 13.44C27.4016 14.2293 27.5936 15.2107 27.5936 16.384C27.5936 18.5387 26.8256 20.2347 25.2896 21.472C23.7536 22.688 21.631 23.296 18.9216 23.296Z" fill="#FE5E29"/>
<path d="M0 22.9441V0.352051H5.024V22.9441H0Z" fill="#FE5E29"/>
</g>
<defs>
<clipPath id="clip0_1_2">
<rect width="101" height="24" fill="white"/>
</clipPath>
</defs>
</svg>
