<svg width="342" height="342" viewBox="0 0 342 342" fill="none" xmlns="http://www.w3.org/2000/svg">
<path fill-rule="evenodd" clip-rule="evenodd" d="M12 0C5.37256 0 0 5.37256 0 12V330C0 336.627 5.37256 342 12 342H330C336.627 342 342 336.627 342 330V12C342 5.37256 336.627 0 330 0H12ZM226.612 150.884V191.369H235.615V167.123L254.539 191.369H261.134V150.884H252.13V175.497L232.92 150.884H226.612ZM196.9 192C193.574 192 190.63 191.293 188.069 189.878C185.545 188.464 183.558 186.514 182.105 184.029C180.69 181.506 179.983 178.639 179.983 175.428V150.884H189.043V175.944C189.043 177.549 189.388 178.945 190.076 180.13C190.764 181.315 191.7 182.232 192.885 182.882C194.109 183.494 195.447 183.8 196.9 183.8C198.429 183.8 199.767 183.494 200.914 182.882C202.061 182.232 202.959 181.334 203.609 180.187C204.297 179.002 204.641 177.607 204.641 176.001V150.884H213.701V175.485C213.701 178.696 212.994 181.544 211.58 184.029C210.165 186.514 208.197 188.464 205.673 189.878C203.15 191.293 200.226 192 196.9 192ZM144.331 190.394C146.739 191.465 149.607 192 152.933 192C157.788 192 161.592 190.91 164.344 188.731C167.096 186.514 168.473 183.475 168.473 179.614C168.473 177.511 168.129 175.752 167.441 174.338C166.752 172.885 165.835 171.7 164.688 170.783C163.579 169.827 162.356 169.043 161.018 168.432C159.68 167.82 158.323 167.285 156.947 166.826C155.609 166.367 154.366 165.908 153.219 165.45C152.111 164.991 151.212 164.456 150.524 163.844C149.836 163.194 149.492 162.353 149.492 161.321C149.492 160.212 149.951 159.371 150.868 158.798C151.786 158.186 153.028 157.88 154.595 157.88C156.163 157.88 157.558 158.186 158.782 158.798C160.043 159.409 161.286 160.346 162.509 161.608L168.358 155.816C166.829 154.095 164.879 152.738 162.509 151.744C160.177 150.75 157.596 150.253 154.768 150.253C151.977 150.253 149.511 150.731 147.37 151.687C145.229 152.604 143.547 153.962 142.324 155.758C141.139 157.555 140.546 159.696 140.546 162.181C140.546 164.245 140.89 165.966 141.578 167.342C142.267 168.68 143.165 169.808 144.274 170.725C145.42 171.604 146.663 172.35 148.001 172.962C149.339 173.535 150.677 174.051 152.015 174.51C153.391 174.969 154.634 175.447 155.742 175.944C156.889 176.441 157.807 177.033 158.495 177.721C159.183 178.409 159.527 179.308 159.527 180.416C159.527 181.64 158.992 182.595 157.921 183.284C156.889 183.972 155.417 184.316 153.506 184.316C151.403 184.316 149.549 183.914 147.944 183.112C146.376 182.271 144.943 181.104 143.643 179.614L137.794 185.405C139.782 187.623 141.961 189.286 144.331 190.394ZM114.774 192C111.448 192 108.581 191.465 106.172 190.394C103.802 189.286 101.623 187.623 99.6353 185.405L105.484 179.614C106.784 181.104 108.218 182.271 109.785 183.112C111.391 183.914 113.245 184.316 115.348 184.316C117.259 184.316 118.731 183.972 119.763 183.284C120.833 182.595 121.369 181.64 121.369 180.416C121.369 179.308 121.025 178.409 120.336 177.721C119.648 177.033 118.731 176.441 117.584 175.944C116.475 175.447 115.233 174.969 113.857 174.51C112.519 174.051 111.18 173.535 109.843 172.962C108.504 172.35 107.262 171.604 106.115 170.725C105.007 169.808 104.108 168.68 103.42 167.342C102.732 165.966 102.388 164.245 102.388 162.181C102.388 159.696 102.98 157.555 104.166 155.758C105.389 153.962 107.071 152.604 109.212 151.687C111.353 150.731 113.818 150.253 116.609 150.253C119.438 150.253 122.019 150.75 124.351 151.744C126.721 152.738 128.67 154.095 130.2 155.816L124.351 161.608C123.127 160.346 121.885 159.409 120.623 158.798C119.4 158.186 118.004 157.88 116.437 157.88C114.87 157.88 113.627 158.186 112.71 158.798C111.792 159.371 111.333 160.212 111.333 161.321C111.333 162.353 111.677 163.194 112.366 163.844C113.054 164.456 113.952 164.991 115.061 165.45C116.208 165.908 117.45 166.367 118.788 166.826C120.165 167.285 121.521 167.82 122.86 168.432C124.198 169.043 125.421 169.827 126.53 170.783C127.677 171.7 128.594 172.885 129.282 174.338C129.97 175.752 130.314 177.511 130.314 179.614C130.314 183.475 128.938 186.514 126.186 188.731C123.433 190.91 119.629 192 114.774 192ZM80.8665 150.884V191.369H89.8694V150.884H80.8665Z" fill="#FF5E2A"/>
</svg>
